<?xml version="1.0" encoding="utf-8"?>
<!-- Generator: Adobe Adobe Illustrator 24.2.0, SVG Export Plug-In . SVG Version: 6.00 Build 0)  -->
<svg version="1.1" xmlns="http://www.w3.org/2000/svg" xmlns:xlink="http://www.w3.org/1999/xlink" x="0px" y="0px"
	 width="2371.04px" height="470px" viewBox="0 0 2371.04 470" style="enable-background:new 0 0 2371.04 470;" xml:space="preserve"
	>
<style type="text/css">
	.st0{fill:url(#SVGID_1_);}
	.st1{fill:none;stroke:#3DFFD8;stroke-width:26;stroke-linecap:round;stroke-linejoin:round;stroke-miterlimit:10;}
	.st2{fill:url(#SVGID_2_);}
	.st3{fill:#4F4F4F;}
	.st4{fill:url(#SVGID_3_);}
	.st5{fill:none;stroke:#3DFFD8;stroke-width:26;stroke-linecap:round;stroke-linejoin:bevel;stroke-miterlimit:10;}
	.st6{fill:#4F4F4F;stroke:#4F4F4F;stroke-width:19;stroke-linejoin:bevel;stroke-miterlimit:10;}
</style>
<g id="Layer_1">
	<radialGradient id="SVGID_1_" cx="402.1041" cy="121.7629" r="457.34" gradientUnits="userSpaceOnUse">
		<stop  offset="0" style="stop-color:#3B8CFF"/>
		<stop  offset="1" style="stop-color:#9178A1"/>
	</radialGradient>
	<circle class="st0" cx="218.92" cy="237.28" r="218.92"/>
	<g>
		<line class="st1" x1="94.55" y1="185.83" x2="114.55" y2="185.83"/>
		<line class="st1" x1="255.41" y1="185.83" x2="359.41" y2="185.83"/>
		<line class="st1" x1="146.83" y1="185.83" x2="224.83" y2="185.83"/>
		<line class="st1" x1="94.23" y1="146.62" x2="291.44" y2="146.62"/>
		<line class="st1" x1="94.39" y1="286.3" x2="264.86" y2="286.3"/>
		<line class="st1" x1="94.8" y1="326.35" x2="215.97" y2="326.35"/>
		<line class="st1" x1="248.04" y1="326.35" x2="315.04" y2="326.35"/>
		<line class="st1" x1="188.93" y1="246.25" x2="295.93" y2="246.25"/>
		<line class="st1" x1="94.55" y1="246.25" x2="157.55" y2="246.25"/>
	</g>
	<g>
		<g>
			<path class="st3" d="M683.27,333.19l-7.14-5.22l-33.39-104.63c-1.42-4.72-2.68-9.25-3.84-13.71c-0.64,2.34-1.29,4.68-1.95,7.05
				c-0.59,2.13-1.19,4.29-1.8,6.5l-0.07,0.25l-32.67,104.5l-7.16,5.26h-35.42l-7.23-5.5l-47.8-173.12l7.23-9.5h29.92l7.28,5.69
				l23.38,94.21c2.26,9.46,4.32,18.75,6.34,28.18c2.75-10.21,5.51-19.79,8.06-28.48l0.08-0.25l31.29-94.21l7.12-5.14h28.54
				l7.13,5.18l30.66,94.39c0.95,3.18,1.9,6.36,2.86,9.55c1.96,6.51,3.94,13.12,5.89,19.82c1.71-8,3.45-15.87,5.16-23.62l1.15-5.23
				l0.06-0.24l24.07-94.21l7.27-5.64h27.85l7.24,9.47l-47.11,173.12l-7.24,5.53H683.27z"/>
			<path class="st3" d="M766.14,152.57L766.14,152.57 M766.14,152.57l-47.11,173.12h-35.76l-33.35-104.5
				c-4.13-13.72-6.88-25.6-9.97-40.64h-1.38c-3.44,15.04-6.88,26.92-10.66,40.64l-32.67,104.5h-35.42l-47.8-173.12h29.91
				l23.38,94.21c4.47,18.74,8.25,37.21,12.38,56.74h1.38c4.47-19.53,9.63-38,15.13-56.74l31.29-94.21h28.54l30.6,94.21
				c5.5,18.47,11.35,37.21,16.16,56.74h1.37c3.78-19.53,7.91-38,12.03-56.74l24.07-94.21H766.14 M766.15,137.57L766.15,137.57
				h-27.86l-14.53,11.29l-24.07,94.21l-0.12,0.49l-0.1,0.44c-0.15-0.5-0.3-1-0.45-1.5l-0.11-0.35l-30.6-94.21l-14.27-10.37h-28.54
				l-14.24,10.27l-31.29,94.21l-0.16,0.5c-0.02,0.05-0.03,0.11-0.05,0.16l-23.27-93.76l-14.56-11.39h-29.91l-14.46,18.99
				l47.8,173.12l14.46,11.01h35.42l14.32-10.52l29.39-94.01l30.03,94.1l14.29,10.44h35.76l14.47-11.06l47.11-173.12L766.15,137.57
				L766.15,137.57L766.15,137.57z M766.14,167.57L766.14,167.57L766.14,167.57L766.14,167.57z"/>
		</g>
		<g>
			<polygon class="st3" points="938.74,333.19 931.24,325.69 931.24,251.91 841.71,251.91 841.71,325.69 834.21,333.19 
				805.33,333.19 797.83,325.69 797.83,152.57 805.33,145.07 834.21,145.07 841.71,152.57 841.71,217.38 931.24,217.38 
				931.24,152.57 938.74,145.07 967.63,145.07 975.13,152.57 975.13,325.69 967.63,333.19 			"/>
			<path class="st3" d="M967.63,152.57v173.12h-28.88v-81.28H834.21v81.28h-28.88V152.57h28.88v72.31h104.53v-72.31H967.63
				 M967.63,137.57h-28.88l-15,15v57.31h-74.53v-57.31l-15-15h-28.88l-15,15v173.12l15,15h28.88l15-15v-66.28h74.53v66.28l15,15
				h28.88l15-15V152.57L967.63,137.57L967.63,137.57z"/>
		</g>
		<g>
			<path class="st3" d="M1153.99,333.19l-6.95-4.68l-19.42-47.84h-72.11l-19.75,47.88l-6.93,4.64H999.6l-6.87-10.51l75.99-173.12
				l6.87-4.49h33.01l6.87,4.49l75.99,173.12l-6.87,10.51H1153.99z M1114.29,247.73l-6.42-15.73c-5.42-12.65-10.64-25.74-16.35-40.98
				c-4.89,13.45-10.14,26.97-15.87,40.94l-6.44,15.78H1114.29z"/>
			<path class="st3" d="M1108.6,152.57l75.99,173.12h-30.6l-21.32-52.52h-82.18l-21.66,52.52H999.6l75.99-173.12H1108.6
				 M1058.05,255.23h67.4l-10.66-26.13c-8.25-19.26-15.47-38.27-22.69-58.32h-1.38c-6.88,20.06-14.1,39.06-22.01,58.32
				L1058.05,255.23 M1108.6,137.57h-33.01l-13.74,8.97l-75.99,173.12l13.73,21.03h29.23l13.87-9.28l17.83-43.24h62.04l17.52,43.16
				l13.9,9.36h30.6l13.73-21.03l-75.99-173.12L1108.6,137.57L1108.6,137.57z M1080.37,240.23l2.23-5.46
				c3.14-7.64,6.13-15.16,9.01-22.61c3.13,7.94,6.21,15.41,9.34,22.73l2.18,5.34H1080.37L1080.37,240.23z"/>
		</g>
		<g>
			<path class="st3" d="M1216.56,333.19l-7.5-7.5V152.57l7.5-7.5h64.3c28.5,0,49.74,3.96,64.96,12.1
				c18.23,9.76,27.47,25.34,27.47,46.33c0,38.81-33.19,61.07-91.06,61.07h-29.29v61.11l-7.5,7.5H1216.56z M1278.8,231.63
				c50.61,0,50.61-19.71,50.61-28.13c0-12.33-4.02-25.49-51.99-25.49h-24.48v53.61H1278.8z"/>
			<path class="st3" d="M1280.86,152.57c50.55,0,84.93,12.93,84.93,50.93c0,36.68-34.04,53.57-83.56,53.57h-36.79v68.61h-28.88
				V152.57H1280.86 M1245.45,239.13h33.35c39.2,0,58.11-11.08,58.11-35.63c0-24.81-19.94-32.99-59.49-32.99h-31.98V239.13
				 M1280.86,137.57h-64.3l-15,15v173.12l15,15h28.88l15-15v-53.61h21.79c28.37,0,51.26-5.1,68.06-15.16
				c19.95-11.96,30.5-30.42,30.5-53.41c0-23.63-10.87-41.94-31.43-52.94C1333.03,141.82,1310.62,137.57,1280.86,137.57
				L1280.86,137.57z M1260.45,185.51h16.98c17.94,0,30.62,1.85,37.67,5.51c4.32,2.24,6.82,5,6.82,12.48
				c0,8.67-3.43,11.94-7.13,14.19c-4.84,2.94-15.01,6.44-35.98,6.44h-18.35V185.51L1260.45,185.51z"/>
		</g>
		<g>
			<path class="st3" d="M1411.52,333.19l-7.5-7.5V152.57l7.5-7.5h64.3c28.5,0,49.74,3.96,64.96,12.1
				c18.23,9.76,27.47,25.34,27.47,46.33c0,38.81-33.19,61.07-91.06,61.07h-29.29v61.11l-7.5,7.5H1411.52z M1473.75,231.63
				c50.61,0,50.61-19.71,50.61-28.13c0-12.33-4.02-25.49-51.99-25.49h-24.48v53.61H1473.75z"/>
			<path class="st3" d="M1475.81,152.57c50.54,0,84.93,12.93,84.93,50.93c0,36.68-34.04,53.57-83.56,53.57h-36.79v68.61h-28.88
				V152.57H1475.81 M1440.4,239.13h33.35c39.2,0,58.11-11.08,58.11-35.63c0-24.81-19.94-32.99-59.49-32.99h-31.98V239.13
				 M1475.81,137.57h-64.3l-15,15v173.12l15,15h28.88l15-15v-53.61h21.79c28.37,0,51.26-5.1,68.06-15.16
				c19.95-11.96,30.5-30.42,30.5-53.41c0-23.63-10.87-41.94-31.43-52.94C1527.98,141.82,1505.58,137.57,1475.81,137.57
				L1475.81,137.57z M1455.4,185.51h16.98c17.94,0,30.62,1.85,37.67,5.51c4.32,2.24,6.82,5,6.82,12.48c0,8.67-3.43,11.94-7.13,14.19
				c-4.84,2.94-15.01,6.44-35.98,6.44h-18.35V185.51L1455.4,185.51z"/>
		</g>
		<g>
			<polygon class="st3" points="1606.47,333.19 1598.97,325.69 1598.97,152.57 1606.47,145.07 1635.35,145.07 1642.85,152.57 
				1642.85,299.45 1733.69,299.45 1741.19,306.95 1741.19,325.69 1733.69,333.19 			"/>
			<path class="st3" d="M1635.35,152.57v154.38h98.34v18.74h-127.22V152.57H1635.35 M1635.35,137.57h-28.88l-15,15v173.12l15,15
				h127.22l15-15v-18.74l-15-15h-83.34V152.57L1635.35,137.57L1635.35,137.57z"/>
		</g>
		<g>
			<polygon class="st3" points="1773.57,333.19 1766.07,325.69 1766.07,152.57 1773.57,145.07 1802.46,145.07 1809.96,152.57 
				1809.96,325.69 1802.46,333.19 			"/>
			<path class="st3" d="M1802.46,152.57v173.12h-28.88V152.57H1802.46 M1802.46,137.57h-28.88l-15,15v173.12l15,15h28.88l15-15
				V152.57L1802.46,137.57L1802.46,137.57z"/>
		</g>
		<g>
			<polygon class="st3" points="1864,333.19 1856.5,325.69 1856.5,152.57 1864,145.07 1993.97,145.07 2001.47,152.57 
				2001.47,171.31 1993.97,178.81 1900.38,178.81 1900.38,217.91 1978.16,217.91 1985.66,225.41 1985.66,244.14 1978.16,251.64 
				1900.38,251.64 1900.38,299.45 1997.41,299.45 2004.91,306.95 2004.91,325.69 1997.41,333.19 			"/>
			<path class="st3" d="M1993.97,152.57v18.74h-101.09v54.1h85.27v18.74h-85.27v62.81h104.53v18.74H1864V152.57H1993.97
				 M1993.97,137.57H1864l-15,15v173.12l15,15h133.41l15-15v-18.74l-15-15h-89.53v-32.81h70.27l15-15v-18.74l-15-15h-70.27v-24.1
				h86.09l15-15v-18.74L1993.97,137.57L1993.97,137.57z"/>
		</g>
		<g>
			<path class="st3" d="M2045.2,333.19l-7.5-7.5V152.57l7.5-7.5h56.39c36.18,0,64.47,8.07,84.07,23.98
				c19.92,16.17,30.02,39.48,30.02,69.29c0,29.51-10.29,53.75-29.76,70.1c-19.55,16.42-47.47,24.75-82.96,24.75H2045.2z
				 M2099.53,299.98c47.27,0,71.24-20.74,71.24-61.64c0-19.61-5.75-34.57-17.08-44.46c-11.85-10.35-30.08-15.6-54.17-15.6h-17.95
				v121.7H2099.53z"/>
			<path class="st3" d="M2101.59,152.57c69.46,0,106.59,30.88,106.59,85.77c0,55.16-37.14,87.35-105.22,87.35h-57.77V152.57H2101.59
				 M2074.08,307.48h25.44c52.61,0,78.74-25.33,78.74-69.14c0-43.54-26.13-67.56-78.74-67.56h-25.44V307.48 M2101.59,137.57h-56.39
				l-15,15v173.12l15,15h57.77c37.31,0,66.84-8.92,87.79-26.51c21.22-17.82,32.43-44.04,32.43-75.85c0-31.73-11.34-57.7-32.8-75.12
				C2169.41,146.2,2139.54,137.57,2101.59,137.57L2101.59,137.57z M2089.08,185.78h10.44c22.22,0,38.78,4.63,49.23,13.75
				c9.76,8.52,14.51,21.22,14.51,38.81c0,17.67-4.94,31.08-14.68,39.85c-10.52,9.48-27.03,14.29-49.06,14.29h-10.44V185.78
				L2089.08,185.78z"/>
		</g>
		<g>
			<path class="st3" d="M2294.14,336.35c-15.84,0-27.79-10.37-27.79-24.13c0-13.9,11.95-24.39,27.79-24.39
				c16.04,0,28.13,10.49,28.13,24.39C2322.27,325.98,2310.18,336.35,2294.14,336.35z M2281.08,280.67l-7.38-6.14
				c-5.03-27.21,13.33-44.58,28.09-58.54c10.14-9.59,18.9-17.87,18.9-26.75c0-11-9.91-17.83-25.85-17.83
				c-12.46,0-24.31,4.57-34.29,13.21l-9.16,0.51l-16.5-11.35l-0.7-11.82c17.73-15.55,39.89-23.77,64.09-23.77
				c39.65,0,65.27,19.52,65.27,49.72c0,19.7-14.59,33.42-27.47,45.52c-13.29,12.49-24.77,23.28-22.47,38.61l-7.42,8.61H2281.08z"/>
			<path class="st3" d="M2298.27,145.71c34.73,0,57.77,16.1,57.77,42.22c0,34.57-55.36,48.56-49.86,85.24h-25.1
				c-7.57-40.9,47.11-55.95,47.11-83.92c0-13.99-11.35-25.33-33.35-25.33c-15.13,0-28.54,5.81-39.2,15.04l-16.5-11.35
				C2253.57,154.94,2273.17,145.71,2298.27,145.71 M2294.14,295.34c11.35,0,20.63,6.86,20.63,16.89c0,9.76-9.28,16.63-20.63,16.63
				s-20.29-6.86-20.29-16.63C2273.86,302.2,2282.8,295.34,2294.14,295.34 M2298.27,130.71c-26.05,0-49.92,8.86-69.03,25.63
				l1.39,23.64l16.5,11.35l18.32-1.02c5.99-5.19,15.95-11.38,29.38-11.38c4.31,0,18.35,0.75,18.35,10.33
				c0,5.65-8.41,13.6-16.55,21.3c-15.23,14.4-36.08,34.13-30.31,65.35l10.16,8.45c-10.7,5.35-17.63,15.6-17.63,27.88
				c0,9.17,4.19,17.8,11.49,23.67c6.39,5.13,14.84,7.96,23.79,7.96c8.92,0,17.38-2.79,23.83-7.85c7.5-5.89,11.8-14.55,11.8-23.77
				c0-9.3-4.28-18.03-11.73-23.95c-2.38-1.89-5.04-3.47-7.9-4.7l10.87-12.62c-1.63-10.89,6.61-19.27,20.19-32.03
				c13.98-13.14,29.83-28.04,29.83-50.98c0-17.5-7.84-32.79-22.08-43.07C2336.13,135.6,2318.6,130.71,2298.27,130.71L2298.27,130.71
				z"/>
		</g>
	</g>
</g>
<g id="Layer_2">
</g>
</svg>
