<?xml version="1.0" encoding="utf-8"?>
<!-- Generator: Adobe Adobe Illustrator 24.2.0, SVG Export Plug-In . SVG Version: 6.00 Build 0)  -->
<svg version="1.1" id="Layer_1" xmlns="http://www.w3.org/2000/svg" xmlns:xlink="http://www.w3.org/1999/xlink" x="0px" y="0px"
	 width="1867.72px" height="437.85px" viewBox="0 0 1867.72 437.85" style="enable-background:new 0 0 1867.72 437.85;"
	 xml:space="preserve">
<style type="text/css">
	.st0{fill:url(#SVGID_1_);}
	.st1{fill:none;stroke:#77F2DA;stroke-width:26;stroke-linecap:round;stroke-linejoin:bevel;stroke-miterlimit:10;}
	.st2{display:none;fill:none;stroke:#B4D6FA;stroke-width:26;stroke-linecap:round;stroke-linejoin:bevel;stroke-miterlimit:10;}
	.st3{fill:#4F4F4F;stroke:#4F4F4F;stroke-width:15;stroke-miterlimit:10;}
</style>
<radialGradient id="SVGID_1_" cx="422.3723" cy="109.1728" r="378.9699" gradientUnits="userSpaceOnUse">
	<stop  offset="0" style="stop-color:#5F4DE8"/>
	<stop  offset="1" style="stop-color:#50B1C7"/>
</radialGradient>
<circle class="st0" cx="218.92" cy="218.92" r="218.92"/>
<g>
	<line class="st1" x1="73.92" y1="159.31" x2="372.92" y2="159.31"/>
	<line class="st1" x1="73.23" y1="119.57" x2="309.23" y2="119.57"/>
	<line class="st1" x1="73.43" y1="279.54" x2="277.43" y2="279.54"/>
	<line class="st1" x1="73.92" y1="319.28" x2="218.92" y2="319.28"/>
	<line class="st1" x1="73.43" y1="238.79" x2="314.43" y2="238.79"/>
	<line class="st2" x1="73.92" y1="199.05" x2="178.92" y2="199.05"/>
</g>
<g>
	<path class="st3" d="M532.04,134.71h21.55l16.84,94.21c3.22,18.74,5.94,37.21,8.92,56.74h0.99c3.22-19.53,6.93-38,10.9-56.74
		l22.54-94.21h20.56l22.04,94.21c3.96,18.47,8.17,37.21,11.64,56.74h0.99c2.72-19.53,5.7-38,8.67-56.74L695,134.71h20.06
		l-33.93,173.12h-25.76l-24.02-104.5c-2.97-13.72-4.95-25.6-7.18-40.64h-0.99c-2.48,15.04-4.95,26.92-7.68,40.64l-23.53,104.5
		h-25.51L532.04,134.71z"/>
	<path class="st3" d="M743.29,134.71h20.8v72.31h75.29v-72.31h20.8v173.12h-20.8v-81.28h-75.29v81.28h-20.8V134.71z"/>
	<path class="st3" d="M937.95,134.71h23.78l54.73,173.12h-22.04l-15.35-52.52h-59.19l-15.6,52.52h-21.05L937.95,134.71z
		 M925.32,237.37h48.54l-7.68-26.13c-5.94-19.26-11.14-38.27-16.35-58.32h-0.99c-4.95,20.06-10.15,39.06-15.85,58.32L925.32,237.37z
		"/>
	<path class="st3" d="M1039.49,134.71h46.31c36.41,0,61.17,12.93,61.17,50.93c0,36.68-24.52,53.57-60.18,53.57h-26.5v68.61h-20.8
		V134.71z M1084.31,221.27c28.23,0,41.86-11.08,41.86-35.63c0-24.81-14.36-32.99-42.85-32.99h-23.03v68.61H1084.31z"/>
	<path class="st3" d="M1179.91,134.71h46.31c36.41,0,61.17,12.93,61.17,50.93c0,36.68-24.52,53.57-60.18,53.57h-26.5v68.61h-20.8
		V134.71z M1224.73,221.27c28.23,0,41.86-11.08,41.86-35.63c0-24.81-14.36-32.99-42.85-32.99h-23.03v68.61H1224.73z"/>
	<path class="st3" d="M1320.33,134.71h20.8v154.38h70.83v18.74h-91.64V134.71z"/>
	<path class="st3" d="M1440.69,134.71h20.8v173.12h-20.8V134.71z"/>
	<path class="st3" d="M1505.82,134.71h93.62v18.74h-72.81v54.1h61.42v18.74h-61.42v62.81h75.29v18.74h-96.09V134.71z"/>
	<path class="st3" d="M1636.33,134.71h40.62c50.03,0,76.78,30.88,76.78,85.77c0,55.16-26.75,87.35-75.79,87.35h-41.61V134.71z
		 M1675.46,289.62c37.89,0,56.72-25.33,56.72-69.14c0-43.54-18.82-67.56-56.72-67.56h-18.33v136.7H1675.46z"/>
	<path class="st3" d="M1840.16,171.39c0-13.99-8.17-25.33-24.02-25.33c-10.9,0-20.56,5.81-28.23,15.04l-11.89-11.35
		c10.4-12.67,24.52-21.9,42.6-21.9c25.01,0,41.61,16.1,41.61,42.22c0,34.57-39.87,48.56-35.91,85.24h-18.08
		C1800.78,214.41,1840.16,199.37,1840.16,171.39z M1801.03,294.37c0-10.03,6.44-16.89,14.61-16.89s14.86,6.86,14.86,16.89
		c0,9.76-6.69,16.63-14.86,16.63S1801.03,304.14,1801.03,294.37z"/>
</g>
</svg>
