<?xml version="1.0" encoding="utf-8"?>
<!-- Generator: Adobe Adobe Illustrator 24.2.0, SVG Export Plug-In . SVG Version: 6.00 Build 0)  -->
<svg version="1.1" id="Layer_1" xmlns="http://www.w3.org/2000/svg" xmlns:xlink="http://www.w3.org/1999/xlink" x="0px" y="0px"
	 viewBox="0 0 2389.1 470" style="enable-background:new 0 0 2389.1 470;" xml:space="preserve">
<style type="text/css">
	.st0{fill:url(#SVGID_1_);}
	.st1{fill:none;stroke:#3DFFD8;stroke-width:26;stroke-linecap:round;stroke-linejoin:bevel;stroke-miterlimit:10;}
	.st2{fill:#4F4F4F;}
</style>
<radialGradient id="SVGID_1_" cx="420.1727" cy="121.7629" r="457.34" gradientUnits="userSpaceOnUse">
	<stop  offset="0" style="stop-color:#3B8CFF"/>
	<stop  offset="1" style="stop-color:#3CB8BD"/>
</radialGradient>
<circle class="st0" cx="236.99" cy="237.28" r="218.92"/>
<g>
	<line class="st1" x1="112.62" y1="185.83" x2="132.62" y2="185.83"/>
	<line class="st1" x1="273.48" y1="185.83" x2="377.48" y2="185.83"/>
	<line class="st1" x1="164.9" y1="185.83" x2="242.9" y2="185.83"/>
	<line class="st1" x1="112.29" y1="146.62" x2="309.5" y2="146.62"/>
	<line class="st1" x1="112.46" y1="286.3" x2="282.93" y2="286.3"/>
	<line class="st1" x1="112.87" y1="326.35" x2="234.04" y2="326.35"/>
	<line class="st1" x1="266.11" y1="326.35" x2="333.11" y2="326.35"/>
	<line class="st1" x1="206.99" y1="246.25" x2="313.99" y2="246.25"/>
	<line class="st1" x1="112.61" y1="246.25" x2="175.61" y2="246.25"/>
</g>
<g>
	<g>
		<path class="st2" d="M701.34,333.19l-7.14-5.22L660.8,223.34c-1.42-4.72-2.68-9.25-3.84-13.71c-0.64,2.34-1.29,4.68-1.95,7.05
			c-0.59,2.13-1.19,4.29-1.8,6.5l-0.07,0.25l-32.67,104.5l-7.16,5.26H577.9l-7.23-5.5l-47.8-173.12l7.23-9.5h29.92l7.28,5.69
			l23.38,94.21c2.26,9.46,4.32,18.75,6.34,28.18c2.75-10.21,5.51-19.79,8.06-28.48l0.08-0.25l31.29-94.21l7.12-5.14h28.54l7.13,5.18
			l30.66,94.39c0.95,3.18,1.9,6.36,2.86,9.55c1.96,6.51,3.94,13.12,5.89,19.82c1.71-8,3.45-15.87,5.16-23.62l1.15-5.23l0.06-0.24
			l24.07-94.21l7.27-5.64h27.85l7.24,9.47l-47.11,173.12l-7.24,5.53H701.34z"/>
		<path class="st2" d="M784.21,152.57L784.21,152.57 M784.21,152.57L737.1,325.69h-35.76l-33.35-104.5
			c-4.13-13.72-6.88-25.6-9.97-40.64h-1.38c-3.44,15.04-6.88,26.92-10.66,40.64l-32.67,104.5H577.9l-47.8-173.12h29.91l23.38,94.21
			c4.47,18.74,8.25,37.21,12.38,56.74h1.38c4.47-19.53,9.63-38,15.13-56.74l31.29-94.21h28.54l30.6,94.21
			c5.5,18.47,11.35,37.21,16.16,56.74h1.37c3.78-19.53,7.91-38,12.03-56.74l24.07-94.21H784.21 M784.21,137.57L784.21,137.57h-27.86
			l-14.53,11.29l-24.07,94.21l-0.12,0.49l-0.1,0.44c-0.15-0.5-0.3-1-0.45-1.5l-0.11-0.35l-30.6-94.21l-14.27-10.37h-28.54
			l-14.24,10.27l-31.29,94.21l-0.16,0.5c-0.02,0.05-0.03,0.11-0.05,0.16l-23.27-93.76l-14.56-11.39H530.1l-14.46,18.99l47.8,173.12
			l14.46,11.01h35.42l14.32-10.52l29.39-94.01l30.03,94.1l14.29,10.44h35.76l14.47-11.06l47.11-173.12L784.21,137.57L784.21,137.57
			L784.21,137.57z M784.21,167.57L784.21,167.57L784.21,167.57L784.21,167.57z"/>
	</g>
	<g>
		<polygon class="st2" points="956.81,333.19 949.31,325.69 949.31,251.91 859.78,251.91 859.78,325.69 852.28,333.19 823.4,333.19 
			815.9,325.69 815.9,152.57 823.4,145.07 852.28,145.07 859.78,152.57 859.78,217.38 949.31,217.38 949.31,152.57 956.81,145.07 
			985.7,145.07 993.2,152.57 993.2,325.69 985.7,333.19 		"/>
		<path class="st2" d="M985.7,152.57v173.12h-28.88v-81.28H852.28v81.28H823.4V152.57h28.88v72.31h104.53v-72.31H985.7
			 M985.7,137.57h-28.88l-15,15v57.31h-74.53v-57.31l-15-15H823.4l-15,15v173.12l15,15h28.88l15-15v-66.28h74.53v66.28l15,15h28.88
			l15-15V152.57L985.7,137.57L985.7,137.57z"/>
	</g>
	<g>
		<path class="st2" d="M1172.06,333.19l-6.95-4.68l-19.42-47.84h-72.11l-19.75,47.88l-6.93,4.64h-29.23l-6.87-10.51l75.99-173.12
			l6.87-4.49h33.01l6.87,4.49l75.99,173.12l-6.87,10.51H1172.06z M1132.36,247.73l-6.42-15.73c-5.42-12.65-10.64-25.74-16.35-40.98
			c-4.89,13.45-10.14,26.97-15.87,40.94l-6.44,15.78H1132.36z"/>
		<path class="st2" d="M1126.67,152.57l75.99,173.12h-30.6l-21.32-52.52h-82.18l-21.66,52.52h-29.23l75.99-173.12H1126.67
			 M1076.12,255.23h67.4l-10.66-26.13c-8.25-19.26-15.47-38.27-22.69-58.32h-1.38c-6.88,20.06-14.1,39.06-22.01,58.32
			L1076.12,255.23 M1126.67,137.57h-33.01l-13.74,8.97l-75.99,173.12l13.73,21.03h29.23l13.87-9.28l17.83-43.24h62.04l17.52,43.16
			l13.9,9.36h30.6l13.73-21.03l-75.99-173.12L1126.67,137.57L1126.67,137.57z M1098.44,240.23l2.23-5.46
			c3.14-7.64,6.13-15.16,9.01-22.61c3.13,7.94,6.21,15.41,9.34,22.73l2.18,5.34H1098.44L1098.44,240.23z"/>
	</g>
	<g>
		<path class="st2" d="M1234.63,333.19l-7.5-7.5V152.57l7.5-7.5h64.3c28.5,0,49.74,3.96,64.96,12.1
			c18.23,9.76,27.47,25.34,27.47,46.33c0,38.81-33.19,61.07-91.06,61.07h-29.29v61.11l-7.5,7.5H1234.63z M1296.87,231.63
			c50.61,0,50.61-19.71,50.61-28.13c0-12.33-4.02-25.49-51.99-25.49h-24.48v53.61H1296.87z"/>
		<path class="st2" d="M1298.93,152.57c50.55,0,84.93,12.93,84.93,50.93c0,36.68-34.04,53.57-83.56,53.57h-36.79v68.61h-28.88
			V152.57H1298.93 M1263.51,239.13h33.35c39.2,0,58.11-11.08,58.11-35.63c0-24.81-19.94-32.99-59.49-32.99h-31.98V239.13
			 M1298.93,137.57h-64.3l-15,15v173.12l15,15h28.88l15-15v-53.61h21.79c28.37,0,51.26-5.1,68.06-15.16
			c19.95-11.96,30.5-30.42,30.5-53.41c0-23.63-10.87-41.94-31.43-52.94C1351.1,141.82,1328.69,137.57,1298.93,137.57L1298.93,137.57
			z M1278.51,185.51h16.98c17.94,0,30.62,1.85,37.67,5.51c4.32,2.24,6.82,5,6.82,12.48c0,8.67-3.43,11.94-7.13,14.19
			c-4.84,2.94-15.01,6.44-35.98,6.44h-18.35V185.51L1278.51,185.51z"/>
	</g>
	<g>
		<path class="st2" d="M1429.58,333.19l-7.5-7.5V152.57l7.5-7.5h64.3c28.5,0,49.74,3.96,64.96,12.1
			c18.23,9.76,27.47,25.34,27.47,46.33c0,38.81-33.19,61.07-91.06,61.07h-29.29v61.11l-7.5,7.5H1429.58z M1491.82,231.63
			c50.61,0,50.61-19.71,50.61-28.13c0-12.33-4.02-25.49-51.99-25.49h-24.48v53.61H1491.82z"/>
		<path class="st2" d="M1493.88,152.57c50.54,0,84.93,12.93,84.93,50.93c0,36.68-34.04,53.57-83.56,53.57h-36.79v68.61h-28.88
			V152.57H1493.88 M1458.47,239.13h33.35c39.2,0,58.11-11.08,58.11-35.63c0-24.81-19.94-32.99-59.49-32.99h-31.98V239.13
			 M1493.88,137.57h-64.3l-15,15v173.12l15,15h28.88l15-15v-53.61h21.79c28.37,0,51.26-5.1,68.06-15.16
			c19.95-11.96,30.5-30.42,30.5-53.41c0-23.63-10.87-41.94-31.43-52.94C1546.05,141.82,1523.64,137.57,1493.88,137.57
			L1493.88,137.57z M1473.47,185.51h16.98c17.94,0,30.62,1.85,37.67,5.51c4.32,2.24,6.82,5,6.82,12.48c0,8.67-3.43,11.94-7.13,14.19
			c-4.84,2.94-15.01,6.44-35.98,6.44h-18.35V185.51L1473.47,185.51z"/>
	</g>
	<g>
		<polygon class="st2" points="1624.54,333.19 1617.04,325.69 1617.04,152.57 1624.54,145.07 1653.42,145.07 1660.92,152.57 
			1660.92,299.45 1751.76,299.45 1759.26,306.95 1759.26,325.69 1751.76,333.19 		"/>
		<path class="st2" d="M1653.42,152.57v154.38h98.34v18.74h-127.22V152.57H1653.42 M1653.42,137.57h-28.88l-15,15v173.12l15,15
			h127.22l15-15v-18.74l-15-15h-83.34V152.57L1653.42,137.57L1653.42,137.57z"/>
	</g>
	<g>
		<polygon class="st2" points="1791.64,333.19 1784.14,325.69 1784.14,152.57 1791.64,145.07 1820.53,145.07 1828.03,152.57 
			1828.03,325.69 1820.53,333.19 		"/>
		<path class="st2" d="M1820.53,152.57v173.12h-28.88V152.57H1820.53 M1820.53,137.57h-28.88l-15,15v173.12l15,15h28.88l15-15
			V152.57L1820.53,137.57L1820.53,137.57z"/>
	</g>
	<g>
		<polygon class="st2" points="1882.07,333.19 1874.57,325.69 1874.57,152.57 1882.07,145.07 2012.04,145.07 2019.54,152.57 
			2019.54,171.31 2012.04,178.81 1918.45,178.81 1918.45,217.91 1996.23,217.91 2003.73,225.41 2003.73,244.14 1996.23,251.64 
			1918.45,251.64 1918.45,299.45 2015.48,299.45 2022.98,306.95 2022.98,325.69 2015.48,333.19 		"/>
		<path class="st2" d="M2012.04,152.57v18.74h-101.09v54.1h85.27v18.74h-85.27v62.81h104.53v18.74h-133.41V152.57H2012.04
			 M2012.04,137.57h-129.97l-15,15v173.12l15,15h133.41l15-15v-18.74l-15-15h-89.53v-32.81h70.27l15-15v-18.74l-15-15h-70.27v-24.1
			h86.09l15-15v-18.74L2012.04,137.57L2012.04,137.57z"/>
	</g>
	<g>
		<path class="st2" d="M2063.27,333.19l-7.5-7.5V152.57l7.5-7.5h56.39c36.18,0,64.47,8.07,84.07,23.98
			c19.92,16.17,30.02,39.48,30.02,69.29c0,29.51-10.29,53.75-29.76,70.1c-19.55,16.42-47.47,24.75-82.96,24.75H2063.27z
			 M2117.6,299.98c47.27,0,71.24-20.74,71.24-61.64c0-19.61-5.75-34.57-17.08-44.46c-11.85-10.35-30.08-15.6-54.17-15.6h-17.95
			v121.7H2117.6z"/>
		<path class="st2" d="M2119.66,152.57c69.46,0,106.59,30.88,106.59,85.77c0,55.16-37.14,87.35-105.22,87.35h-57.77V152.57H2119.66
			 M2092.15,307.48h25.44c52.61,0,78.74-25.33,78.74-69.14c0-43.54-26.13-67.56-78.74-67.56h-25.44V307.48 M2119.66,137.57h-56.39
			l-15,15v173.12l15,15h57.77c37.31,0,66.84-8.92,87.79-26.51c21.22-17.82,32.43-44.04,32.43-75.85c0-31.73-11.34-57.7-32.8-75.12
			C2187.48,146.2,2157.61,137.57,2119.66,137.57L2119.66,137.57z M2107.15,185.78h10.44c22.22,0,38.78,4.63,49.23,13.75
			c9.76,8.52,14.51,21.22,14.51,38.81c0,17.67-4.94,31.08-14.68,39.85c-10.52,9.48-27.03,14.29-49.06,14.29h-10.44V185.78
			L2107.15,185.78z"/>
	</g>
	<g>
		<path class="st2" d="M2312.21,336.35c-15.84,0-27.79-10.37-27.79-24.13c0-13.9,11.95-24.39,27.79-24.39
			c16.04,0,28.13,10.49,28.13,24.39C2340.34,325.98,2328.25,336.35,2312.21,336.35z M2299.15,280.67l-7.38-6.14
			c-5.03-27.21,13.33-44.58,28.09-58.54c10.14-9.59,18.9-17.87,18.9-26.75c0-11-9.91-17.83-25.85-17.83
			c-12.46,0-24.31,4.57-34.29,13.21l-9.16,0.51l-16.5-11.35l-0.7-11.82c17.73-15.55,39.89-23.77,64.09-23.77
			c39.65,0,65.27,19.52,65.27,49.72c0,19.7-14.59,33.42-27.47,45.52c-13.29,12.49-24.77,23.28-22.47,38.61l-7.42,8.61H2299.15z"/>
		<path class="st2" d="M2316.34,145.71c34.73,0,57.77,16.1,57.77,42.22c0,34.57-55.36,48.56-49.86,85.24h-25.1
			c-7.57-40.9,47.11-55.95,47.11-83.92c0-13.99-11.35-25.33-33.35-25.33c-15.13,0-28.54,5.81-39.2,15.04l-16.5-11.35
			C2271.64,154.94,2291.24,145.71,2316.34,145.71 M2312.21,295.34c11.35,0,20.63,6.86,20.63,16.89c0,9.76-9.28,16.63-20.63,16.63
			s-20.29-6.86-20.29-16.63C2291.93,302.2,2300.87,295.34,2312.21,295.34 M2316.34,130.71c-26.05,0-49.92,8.86-69.03,25.63
			l1.39,23.64l16.5,11.35l18.32-1.02c5.99-5.19,15.95-11.38,29.38-11.38c4.31,0,18.35,0.75,18.35,10.33c0,5.65-8.41,13.6-16.55,21.3
			c-15.23,14.4-36.08,34.13-30.31,65.35l10.16,8.45c-10.7,5.35-17.63,15.6-17.63,27.88c0,9.17,4.19,17.8,11.49,23.67
			c6.39,5.13,14.84,7.96,23.79,7.96c8.92,0,17.38-2.79,23.83-7.85c7.5-5.89,11.8-14.55,11.8-23.77c0-9.3-4.28-18.03-11.73-23.95
			c-2.38-1.89-5.04-3.47-7.9-4.7l10.87-12.62c-1.63-10.89,6.61-19.27,20.19-32.03c13.98-13.14,29.83-28.04,29.83-50.98
			c0-17.5-7.84-32.79-22.08-43.07C2354.2,135.6,2336.67,130.71,2316.34,130.71L2316.34,130.71z"/>
	</g>
</g>
</svg>
